<svg width="46" height="46" viewBox="0 0 46 46" fill="none" xmlns="http://www.w3.org/2000/svg">
<path d="M42.9453 0.898438H3.05469C1.37047 0.898438 0 2.26891 0 3.95312V31.8047C0 33.4889 1.37047 34.8594 3.05469 34.8594H18.1484V38.4531H17.7891C14.6186 38.4531 12.0391 41.0326 12.0391 44.2031C12.0391 44.6994 12.4413 45.1016 12.9375 45.1016H33.0625C33.5587 45.1016 33.9609 44.6994 33.9609 44.2031C33.9609 41.0326 31.3814 38.4531 28.2109 38.4531H27.8516V34.8594H42.9453C44.6295 34.8594 46 33.4889 46 31.8047V3.95312C46 2.26891 44.6295 0.898438 42.9453 0.898438ZM32.0612 43.3047H13.9391C14.3469 41.5562 15.9185 40.25 17.7891 40.25H28.2109C30.0819 40.25 31.6534 41.5562 32.0612 43.3047ZM26.0547 38.4531H19.9453V34.8594H26.0547V38.4531ZM44.2031 31.8047C44.2031 32.4982 43.6388 33.0625 42.9453 33.0625H3.05469C2.36121 33.0625 1.79688 32.4982 1.79688 31.8047V29.4688H37.9141C38.4103 29.4688 38.8125 29.0666 38.8125 28.5703C38.8125 28.0741 38.4103 27.6719 37.9141 27.6719H1.79688V3.95312C1.79688 3.25964 2.36121 2.69531 3.05469 2.69531H42.9453C43.6388 2.69531 44.2031 3.25964 44.2031 3.95312V31.8047Z" fill="#878787"/>
<path d="M23.0042 30.2773H22.9958C22.4995 30.2773 22.1016 30.6795 22.1016 31.1758C22.1016 31.672 22.508 32.0742 23.0042 32.0742C23.5005 32.0742 23.9026 31.672 23.9026 31.1758C23.9026 30.6795 23.5005 30.2773 23.0042 30.2773Z" fill="#878787"/>
<path d="M41.5083 27.6719C41.2718 27.6719 41.0401 27.768 40.8731 27.9351C40.705 28.1021 40.6099 28.3341 40.6099 28.5703C40.6099 28.8065 40.705 29.0385 40.8731 29.2055C41.0401 29.3726 41.2718 29.4688 41.5083 29.4688C41.7445 29.4688 41.9765 29.3726 42.1435 29.2055C42.3106 29.0385 42.4067 28.8065 42.4067 28.5703C42.4067 28.3341 42.3106 28.1021 42.1435 27.9351C41.9765 27.768 41.7445 27.6719 41.5083 27.6719Z" fill="#878787"/>
<path d="M29.7203 6.28275C29.5518 6.11429 29.3233 6.01953 29.085 6.01953C28.8467 6.01953 28.6183 6.11429 28.4498 6.28275L20.605 14.1276L17.5278 11.0508C17.3594 10.8823 17.1309 10.7876 16.8926 10.7876C16.6543 10.7876 16.4258 10.8823 16.2574 11.0508L12.232 15.0762C11.881 15.4272 11.881 15.996 12.232 16.347L19.9694 24.0844C20.1379 24.2529 20.3667 24.3477 20.605 24.3477C20.8429 24.3477 21.0717 24.2529 21.2402 24.0844L33.7457 11.579C34.0966 11.228 34.0966 10.6591 33.7457 10.3082L29.7203 6.28275ZM20.605 22.1788L14.1376 15.7118L16.8926 12.9568L19.9698 16.0336C20.3204 16.3842 20.8892 16.3842 21.2402 16.0336L29.085 8.18877L31.84 10.9437L20.605 22.1788Z" fill="#878787"/>
</svg>
