<svg width="35" height="35" viewBox="0 0 35 35" fill="none" xmlns="http://www.w3.org/2000/svg">
<path d="M31.2277 9.72217H3.77211C3.28736 9.72217 2.82245 9.91474 2.47968 10.2575C2.1369 10.6003 1.94434 11.0652 1.94434 11.5499V29.2833C1.94434 29.768 2.1369 30.2329 2.47968 30.5757C2.82245 30.9185 3.28736 31.1111 3.77211 31.1111H31.2277C31.7124 31.1111 32.1773 30.9185 32.5201 30.5757C32.8629 30.2329 33.0554 29.768 33.0554 29.2833V11.5499C33.0554 11.0652 32.8629 10.6003 32.5201 10.2575C32.1773 9.91474 31.7124 9.72217 31.2277 9.72217ZM31.111 29.1666H3.88878V11.6666H31.111V29.1666Z" fill="#FF8C00"/>
<path d="M29.3031 2.91656C29.3031 2.65871 29.2006 2.41142 29.0183 2.22909C28.836 2.04677 28.5887 1.94434 28.3308 1.94434H6.94195C6.6841 1.94434 6.43681 2.04677 6.25448 2.22909C6.07216 2.41142 5.96973 2.65871 5.96973 2.91656V3.88878H29.3031V2.91656Z" fill="#FF8C00"/>
<path d="M31.2276 6.80572C31.2276 6.54787 31.1252 6.30058 30.9428 6.11825C30.7605 5.93593 30.5132 5.8335 30.2554 5.8335H4.97759C4.71974 5.8335 4.47246 5.93593 4.29013 6.11825C4.1078 6.30058 4.00537 6.54787 4.00537 6.80572V7.77794H31.2276V6.80572Z" fill="#FF8C00"/>
<path d="M12.4639 26.0456C12.7334 26.2204 13.047 26.3148 13.3681 26.3179C13.5995 26.3173 13.8282 26.2676 14.0389 26.172L23.5375 21.9331C23.8312 21.8055 24.0811 21.5949 24.2567 21.3272C24.4323 21.0595 24.5258 20.7463 24.5258 20.4262C24.5258 20.106 24.4323 19.7929 24.2567 19.5251C24.0811 19.2574 23.8312 19.0468 23.5375 18.9192L14.0389 14.6804C13.7876 14.5687 13.5123 14.5216 13.2382 14.5432C12.964 14.5648 12.6995 14.6545 12.4688 14.8042C12.238 14.9538 12.0483 15.1587 11.9167 15.4002C11.7851 15.6417 11.7159 15.9123 11.7153 16.1873V24.6651C11.7158 24.9392 11.7845 25.2089 11.9152 25.4499C12.0459 25.6909 12.2345 25.8957 12.4639 26.0456ZM13.0764 16.1873C13.0761 16.1385 13.0885 16.0904 13.1124 16.0478C13.1362 16.0052 13.1708 15.9695 13.2126 15.9442C13.2634 15.9302 13.3172 15.9302 13.3681 15.9442C13.4065 15.9355 13.4464 15.9355 13.4848 15.9442L22.9834 20.1734C23.037 20.1953 23.0825 20.2332 23.1138 20.2819C23.1451 20.3306 23.1607 20.3878 23.1584 20.4456C23.1601 20.5021 23.1441 20.5578 23.1128 20.6048C23.0814 20.6519 23.0362 20.688 22.9834 20.7081L13.4848 24.947C13.4434 24.9709 13.3964 24.9835 13.3487 24.9835C13.3009 24.9835 13.2539 24.9709 13.2126 24.947C13.172 24.9204 13.1384 24.8845 13.1147 24.8422C13.091 24.7998 13.0779 24.7524 13.0764 24.704V16.1873Z" fill="#FF8C00"/>
</svg>
