<svg width="30" height="30" viewBox="0 0 30 30" fill="none" xmlns="http://www.w3.org/2000/svg">
<path fill-rule="evenodd" clip-rule="evenodd" d="M15 30C23.2843 30 30 23.2843 30 15C30 6.71573 23.2843 -2.93554e-07 15 -6.55671e-07C6.71573 -1.01779e-06 3.52114e-06 6.71573 3.15903e-06 15C2.79691e-06 23.2843 6.71573 30 15 30ZM14.9917 12.6871L19.9656 8.09217C20.5741 7.53002 21.5231 7.5676 22.0852 8.17611C22.6474 8.78462 22.6098 9.73362 22.0013 10.2958L16.9093 14.9998L22.0013 19.7039C22.6098 20.266 22.6474 21.215 22.0852 21.8235C21.5231 22.432 20.5741 22.4696 19.9656 21.9075L14.9917 17.3125L10.0179 21.9075C9.40935 22.4696 8.46035 22.432 7.8982 21.8235C7.33605 21.215 7.37363 20.266 7.98214 19.7039L13.0741 14.9998L7.98214 10.2958C7.37363 9.73362 7.33605 8.78462 7.8982 8.17611C8.46034 7.5676 9.40935 7.53002 10.0179 8.09217L14.9917 12.6871Z" fill="white"/>
</svg>
