<svg width="46" height="46" viewBox="0 0 46 46" fill="none" xmlns="http://www.w3.org/2000/svg">
<path d="M14.1836 5.39062C13.6984 5.39062 13.3047 5.79313 13.3047 6.28906C13.3047 6.785 13.6984 7.1875 14.1836 7.1875C14.6688 7.1875 15.0625 6.785 15.0625 6.28906C15.0625 5.79313 14.6688 5.39062 14.1836 5.39062Z" fill="#878787"/>
<path d="M37.2109 10.7812C36.497 10.7812 35.7766 10.8782 35.0591 11.0704C33.5412 4.69434 27.4874 0 20.8633 0C14.1428 0 7.9627 4.84518 6.58826 11.4174C6.56119 11.4352 6.53553 11.4545 6.51092 11.475C3.23506 12.8822 1 16.588 1 20.3047C1 25.1193 4.77842 28.75 9.78906 28.75H19.1055V35.2188H16.4688C16.1309 35.2188 15.8229 35.4167 15.6766 35.728C15.5302 36.0393 15.5714 36.4087 15.7824 36.6784L22.8137 45.6628C22.9804 45.8759 23.233 46 23.5 46C23.767 46 24.0195 45.8759 24.1863 45.6628L31.2176 36.6784C31.4286 36.4087 31.4698 36.0393 31.3234 35.728C31.1771 35.4167 30.8691 35.2188 30.5312 35.2188H27.8945V28.75H37.2109C42.0573 28.75 46 24.7197 46 19.7656C46 14.8116 42.0573 10.7812 37.2109 10.7812ZM28.7025 37.0156L23.5 43.6633L18.2975 37.0156H19.9844C20.4697 37.0156 20.8633 36.6133 20.8633 36.1172V19.7656H26.1367V36.1172C26.1367 36.6133 26.5303 37.0156 27.0156 37.0156H28.7025ZM37.2109 26.9531H27.8945V18.8672C27.8945 18.3711 27.501 17.9688 27.0156 17.9688H19.9844C19.499 17.9688 19.1055 18.3711 19.1055 18.8672V26.9531H9.78906C5.78063 26.9531 2.75781 24.0949 2.75781 20.3047C2.75781 17.045 4.85031 13.8897 7.62511 12.9652C7.70192 12.9396 7.77373 12.9037 7.83912 12.8593C8.47035 12.6732 9.12514 12.5781 9.78906 12.5781C11.6672 12.5781 13.4329 13.3257 14.7609 14.6833C15.1042 15.0342 15.6605 15.0341 16.0039 14.6833C16.3471 14.3325 16.3471 13.7636 16.0039 13.4127C14.3438 11.7157 12.1367 10.7812 9.78906 10.7812C9.36921 10.7812 8.95234 10.8131 8.54058 10.873C10.0889 5.68675 15.2444 1.79688 20.8633 1.79688C26.7885 1.79688 32.1515 6.08161 33.3912 11.6743C32.5028 12.1132 31.6972 12.696 30.9961 13.4128C30.6529 13.7636 30.6529 14.3325 30.9962 14.6833C31.3392 15.0342 31.8959 15.0342 32.2391 14.6833C33.3115 13.5871 34.2455 13.2841 34.4651 13.1262C34.8422 13.0942 35.665 12.5781 37.2109 12.5781C41.088 12.5781 44.2422 15.8024 44.2422 19.7656C44.2422 23.7288 41.088 26.9531 37.2109 26.9531Z" fill="#878787"/>
<path d="M28.231 6.15708C26.4452 4.59991 23.5531 3.59375 20.8633 3.59375C19.8286 3.59375 18.2349 3.74675 17.1809 4.08277C16.7176 4.23056 16.4591 4.73432 16.6036 5.20797C16.7481 5.68163 17.2409 5.94559 17.7043 5.79816C18.5346 5.53348 19.9516 5.39062 20.8633 5.39062C23.1243 5.39062 25.6267 6.24809 27.0904 7.52423C27.4595 7.84623 28.0146 7.80122 28.3295 7.4237C28.6444 7.04627 28.6004 6.47908 28.231 6.15708Z" fill="#878787"/>
</svg>
