<svg width="30" height="30" viewBox="0 0 30 30" fill="none" xmlns="http://www.w3.org/2000/svg">
<path fill-rule="evenodd" clip-rule="evenodd" d="M30 15C30 23.2843 23.2843 30 15 30C6.71573 30 2.79691e-06 23.2843 3.15903e-06 15C3.52114e-06 6.71573 6.71573 -1.01779e-06 15 -6.55671e-07C23.2843 -2.93554e-07 30 6.71573 30 15ZM20.606 13.4242C21.5314 14.2791 21.5314 15.721 20.606 16.5758L14.8345 21.9077C14.226 22.4698 13.277 22.4322 12.7148 21.8237C12.1527 21.2152 12.1902 20.2662 12.7988 19.704L17.8907 15L12.7988 10.296C12.1902 9.73381 12.1527 8.7848 12.7148 8.1763C13.277 7.56779 14.226 7.53021 14.8345 8.09236L20.606 13.4242Z" fill="#444444"/>
</svg>
