<svg width="237" height="58" viewBox="0 0 237 58" fill="none" xmlns="http://www.w3.org/2000/svg">
<path d="M69.7119 53.478L72.7516 44.7561H74.4097L77.4494 53.478H75.8416L75.0879 51.2345H72.0482L71.3197 53.478H69.7119ZM72.4502 49.9489H74.7111L73.9323 47.6046L73.5806 46.2434H73.5555C73.4299 46.8232 73.3043 47.2769 73.2038 47.6046L72.4502 49.9489Z" fill="#444444"/>
<path d="M79.9111 49.0915C79.9111 47.8059 80.3382 46.7472 81.1672 45.8901C81.9962 45.033 83.0764 44.6045 84.3828 44.6045C85.7142 44.6045 86.7693 45.0078 87.5983 45.7893L86.8447 46.974C86.5181 46.6967 86.1413 46.4951 85.7142 46.3186C85.2872 46.1422 84.8601 46.0665 84.4581 46.0665C83.5538 46.0665 82.8252 46.3438 82.3228 46.9236C81.8204 47.5034 81.544 48.2092 81.544 49.0663C81.544 49.9234 81.7953 50.6544 82.3228 51.2594C82.8504 51.8644 83.5538 52.1669 84.4581 52.1669C85.3876 52.1669 86.2166 51.7887 86.9703 51.0577L87.7993 52.1921C86.8698 53.1248 85.7393 53.6037 84.3828 53.6037C83.0262 53.6037 81.946 53.1752 81.117 52.3181C80.3382 51.4862 79.9111 50.4023 79.9111 49.0915Z" fill="#444444"/>
<path d="M90.4375 49.0663C90.4375 47.8059 90.8646 46.7472 91.7187 45.8901C92.5728 45.033 93.6531 44.6045 94.9343 44.6045C96.2406 44.6045 97.3208 45.033 98.1498 45.8901C99.004 46.7472 99.4059 47.8059 99.4059 49.0663C99.4059 50.0746 99.0793 51.0073 98.4513 51.8391L99.431 52.7214L98.5266 53.7297L97.572 52.7718C96.8184 53.3516 95.9391 53.6289 94.9091 53.6289C93.6028 53.6289 92.5477 53.2004 91.6936 52.3181C90.8646 51.4358 90.4375 50.3519 90.4375 49.0663ZM92.0704 49.0663C92.0704 49.9486 92.3467 50.6796 92.8994 51.2846C93.4521 51.8896 94.1304 52.1668 94.9343 52.1668C95.5121 52.1668 96.0396 52.0156 96.4416 51.6879L95.4869 50.7804L96.3913 49.7973L97.3459 50.7552C97.6725 50.251 97.8232 49.6965 97.8232 49.0663C97.8232 48.2092 97.5469 47.4782 96.9942 46.9236C96.4416 46.3438 95.7633 46.0665 94.9594 46.0665C94.1555 46.0665 93.4521 46.3438 92.9245 46.9236C92.3467 47.5034 92.0704 48.2092 92.0704 49.0663Z" fill="#444444"/>
<path d="M102.924 50.3523V44.7561H104.506V50.327C104.506 50.9068 104.682 51.3606 105.034 51.6883C105.386 52.016 105.838 52.1672 106.441 52.1672C107.019 52.1672 107.496 52.016 107.848 51.6883C108.199 51.3606 108.375 50.9068 108.375 50.327V44.7561H109.958V50.3523C109.958 51.3354 109.631 52.1168 109.003 52.7218C108.35 53.3268 107.521 53.6293 106.466 53.6293C105.411 53.6293 104.557 53.3268 103.929 52.7218C103.25 52.1168 102.924 51.3354 102.924 50.3523Z" fill="#444444"/>
<path d="M113.926 53.478V44.7561H115.508V53.478H113.926Z" fill="#444444"/>
<path d="M119.604 53.478V44.7561H122.468C123.197 44.7561 123.75 44.8317 124.101 44.983C124.553 45.1594 124.905 45.4619 125.182 45.8905C125.433 46.2938 125.583 46.7979 125.583 47.3777C125.583 47.9071 125.458 48.386 125.182 48.8398C124.93 49.2683 124.553 49.596 124.126 49.7725V49.7977C124.202 49.8985 124.302 50.0498 124.403 50.2514L126.186 53.5032H124.403L122.694 50.2514H121.187V53.5032H119.604V53.478ZM121.187 48.8398H122.619C123.046 48.8398 123.373 48.7137 123.624 48.4617C123.875 48.2096 124.001 47.8819 124.001 47.4533C124.001 46.8484 123.775 46.445 123.323 46.2686C123.096 46.1677 122.795 46.1173 122.368 46.1173H121.212V48.8398H121.187Z" fill="#444444"/>
<path d="M129.426 53.478V44.7561H131.008V53.478H129.426Z" fill="#444444"/>
<path d="M135.104 53.478V44.7561H136.687L139.978 49.7977C140.079 49.9489 140.179 50.1506 140.305 50.3775C140.43 50.6043 140.531 50.7808 140.581 50.932L140.681 51.1589H140.707C140.656 50.6043 140.631 50.1506 140.631 49.7977V44.7561H142.189V53.478H140.631L137.34 48.4617C137.24 48.3104 137.139 48.1088 137.014 47.8819C136.888 47.655 136.788 47.4786 136.737 47.3273L136.637 47.1004H136.612C136.662 47.655 136.687 48.1087 136.687 48.4617V53.478H135.104Z" fill="#444444"/>
<path d="M145.83 49.1171C145.83 47.8567 146.257 46.7728 147.111 45.9157C147.965 45.0587 149.021 44.6301 150.302 44.6301C151.608 44.6301 152.688 45.0082 153.542 45.7393L152.764 46.924C152.487 46.672 152.136 46.4703 151.709 46.3191C151.281 46.1678 150.854 46.0922 150.452 46.0922C149.523 46.0922 148.769 46.3695 148.267 46.9492C147.739 47.529 147.488 48.2349 147.488 49.0919C147.488 50.0246 147.764 50.7808 148.317 51.3354C148.87 51.9152 149.573 52.1925 150.402 52.1925C151.231 52.1925 151.96 51.89 152.588 51.285V50.2767H151.256V48.9155H154.02V53.5033H152.663V53.0748V52.6966H152.638C152.362 52.9739 151.985 53.2008 151.533 53.3773C151.08 53.5537 150.603 53.6293 150.126 53.6293C148.945 53.6293 147.94 53.2008 147.111 52.3689C146.232 51.5371 145.83 50.4531 145.83 49.1171Z" fill="#444444"/>
<path d="M87.9754 28.0934C87.9754 32.2527 85.0613 37.1683 78.7307 37.1683C72.5508 37.1683 69.3604 32.5048 69.3604 28.1187C69.3604 23.9846 72.3749 19.0942 78.5297 19.0942C85.0865 19.1194 87.9754 24.035 87.9754 28.0934ZM73.5557 28.1943C73.5557 31.0428 75.3393 33.7652 78.6553 33.7652C81.6448 33.7652 83.7801 31.4713 83.7801 28.0682C83.7801 24.6904 81.6448 22.4469 78.7558 22.4469C75.0378 22.4469 73.5557 25.5475 73.5557 28.1943Z" fill="#444444"/>
<path d="M99.0794 19.3211C99.8833 19.3211 101.516 19.3211 102.848 20.0521C103.601 20.4807 105.159 21.615 105.159 23.8081C105.159 25.371 104.481 26.4549 103.174 27.2868C106.365 28.2699 106.566 31.0176 106.566 31.673C106.566 32.9082 106.038 35.0004 104.43 36.0087C102.973 36.891 100.511 36.9414 99.7577 36.9414H92.7236V19.2959H99.0794V19.3211ZM96.8184 22.2704V26.4801H97.8484C98.2504 26.4801 99.1799 26.4801 99.7828 26.2533C100.763 25.8752 101.164 24.9929 101.164 24.3627C101.164 23.8333 100.913 23.304 100.511 22.9006C99.8079 22.2452 98.6523 22.2704 97.974 22.2704H96.8184ZM96.8184 29.4295V34.0173H99.205C100.185 34.0173 102.446 34.0677 102.446 31.7486C102.446 29.4043 100.285 29.4295 99.3306 29.4295H96.8184Z" fill="#444444"/>
<path d="M114.88 19.3211L120.256 26.1524L125.658 19.3211H129.275V36.9666H125.205V25.9256L120.558 31.799H119.955L115.308 25.9256V36.9414H111.288V19.2959H114.88V19.3211Z" fill="#444444"/>
<path d="M146.485 19.3208V22.3457H139.425V26.3286H146.208V29.3535H139.425V33.9414H146.61V36.9663H135.381V19.3208H146.485Z" fill="#444444"/>
<path d="M155.302 19.3208L164.496 30.3619V19.3208H168.39V36.9663H164.948L155.628 25.7236V36.9663H151.734V19.3208H155.302Z" fill="#444444"/>
<path d="M178.539 19.3208V27.4377L185.247 19.3208H189.995L182.911 27.8915L190.347 36.9663H185.322L178.539 28.6729V36.9663H174.47V19.3208H178.539Z" fill="#444444"/>
<path d="M203.51 19.3208L211.021 36.9663H206.725L205.268 33.4372H197.757L196.451 36.9663H192.205L199.013 19.3208H203.51ZM204.113 30.6139L201.324 23.7826L198.812 30.6139H204.113Z" fill="#444444"/>
<path d="M217.25 35.1769H219.034V37.1179H217.25V35.1769Z" fill="#444444"/>
<path d="M220.291 27.791H221.949V33.3367C221.949 34.0677 222.075 34.6475 222.301 35.0508C222.527 35.4541 222.954 35.6558 223.582 35.6558C224.436 35.6558 225.114 35.3029 225.642 34.6223C226.169 33.9417 226.421 33.1098 226.421 32.1267V27.7657H228.054V37.0675H226.446V35.7819L226.521 35.1012H226.496C226.27 35.6558 225.868 36.16 225.29 36.6137C224.712 37.0675 224.059 37.2943 223.28 37.2943C221.321 37.2943 220.316 36.1096 220.316 33.7148V27.791H220.291Z" fill="#444444"/>
<path d="M229.334 32.8322C229.685 32.3784 230.163 32.0255 230.74 31.8239C231.318 31.6222 231.871 31.4962 232.373 31.4205C232.876 31.3449 233.403 31.3197 233.956 31.3197H234.408V31.1432C234.408 29.782 233.78 29.1014 232.499 29.1014C231.67 29.1014 230.866 29.4039 230.062 30.0089L229.384 28.6981C229.736 28.3704 230.213 28.1183 230.816 27.9166C231.419 27.715 232.022 27.6141 232.599 27.6141C233.705 27.6141 234.534 27.9166 235.137 28.5468C235.74 29.177 236.016 30.0845 236.016 31.2441V37.1427H234.458V36.21L234.509 35.479H234.484C234.232 36.0336 233.83 36.4873 233.328 36.8402C232.826 37.1931 232.248 37.3696 231.645 37.3696C230.866 37.3696 230.188 37.1175 229.61 36.6133C229.032 36.1092 228.756 35.4538 228.756 34.5967C228.806 33.8657 228.982 33.2859 229.334 32.8322ZM230.891 35.4538C231.168 35.7563 231.569 35.9075 232.097 35.9075C232.775 35.9075 233.328 35.605 233.78 35C234.232 34.3951 234.433 33.7144 234.433 32.9582V32.6053H234.006C231.67 32.6053 230.489 33.2103 230.489 34.4203C230.464 34.8236 230.59 35.1765 230.891 35.4538Z" fill="#444444"/>
<path fill-rule="evenodd" clip-rule="evenodd" d="M0.100486 31.3703C0.0251216 30.614 0 29.8578 0 29.0763C0 13.4727 12.5859 0.843506 28.1362 0.843506C33.1605 0.843506 37.8582 2.15432 41.9279 4.47344H41.8023C23.2626 4.47344 7.31038 15.4893 0.100486 31.3703ZM13.6411 48.0074C13.6411 49.8728 13.7667 51.6877 13.9677 53.4775C10.4758 51.4356 7.46123 48.6628 5.12492 45.3353C7.38586 24.9169 22.9361 8.50661 42.9329 5.05313C43.4102 5.35563 43.8875 5.65812 44.3397 5.98583C26.5536 11.6072 13.6411 28.2948 13.6411 48.0074ZM28.1361 57.3089C43.6863 57.3089 56.2722 44.6545 56.2722 29.0761C56.2722 19.8752 51.876 11.7078 45.1183 6.54019C31.9043 14.0774 23.0113 28.3198 23.0113 44.6545C23.0113 48.9651 23.6393 53.1496 24.7949 57.1072C25.8751 57.2333 27.0056 57.3089 28.1361 57.3089Z" fill="url(#paint0_radial)"/>
<defs>
<radialGradient id="paint0_radial" cx="0" cy="0" r="1" gradientUnits="userSpaceOnUse" gradientTransform="translate(23.9082 15.6272) rotate(65.4025) scale(41.7015 41.6086)">
<stop stop-color="#8ECFF8"/>
<stop offset="0.307292" stop-color="#41BDFF"/>
<stop offset="0.583333" stop-color="#26A6F7"/>
<stop offset="0.802083" stop-color="#0981DC"/>
<stop offset="1" stop-color="#0063A3"/>
</radialGradient>
</defs>
</svg>
