<svg width="94" height="94" viewBox="0 0 94 94" fill="none" xmlns="http://www.w3.org/2000/svg">
<g clip-path="url(#clip0)">
<path d="M88.3768 0H5.62304C2.71437 0 0.346191 2.36634 0.346191 5.27704V65.6083C0.346191 68.519 2.71437 70.8854 5.62304 70.8854H40.7045V83.076H27.7435C24.7311 83.076 22.2814 85.5275 22.2814 88.5381C22.2814 91.5505 24.7311 94.0002 27.7435 94.0002H56.4686C57.2351 94.0002 57.8573 93.3798 57.8573 92.6115C57.8573 91.845 57.2351 91.2228 56.4686 91.2228H27.7435C26.2623 91.2228 25.0588 90.0193 25.0588 88.5381C25.0588 87.0587 26.2623 85.8534 27.7435 85.8534C31.8898 85.8534 62.2094 85.8534 66.256 85.8534C67.7372 85.8534 68.9407 87.0587 68.9407 88.5381C68.9407 90.0193 67.7372 91.2228 66.256 91.2228H62.0234C61.2569 91.2228 60.6347 91.845 60.6347 92.6115C60.6347 93.3798 61.2569 94.0002 62.0234 94.0002H66.2562C69.2686 94.0002 71.7183 91.5505 71.7183 88.5381C71.7183 85.5275 69.2686 83.076 66.2562 83.076H53.2952V70.8854H88.3766C91.2855 70.8854 93.6537 68.519 93.6537 65.6083V5.27704C93.6537 2.36634 91.2855 0 88.3768 0ZM50.518 83.0758H43.4821V70.8852H50.518V83.0758ZM90.8763 65.6081C90.8763 66.9856 89.7542 68.1078 88.3766 68.1078C85.7401 68.1078 9.23635 68.1078 5.62304 68.1078C4.24554 68.1078 3.12341 66.9856 3.12341 65.6081V5.27704C3.12341 3.89953 4.24554 2.77741 5.62304 2.77741H88.3766C89.7542 2.77741 90.8763 3.89953 90.8763 5.27704V65.6081Z" fill="#E6E6E6"/>
<path d="M82.7776 6.12305H14.5329C13.7646 6.12305 13.1442 6.74525 13.1442 7.51175C13.1442 8.28009 13.7644 8.90045 14.5329 8.90045H82.7776C84.157 8.90045 85.2773 10.0226 85.2773 11.4001V59.4851C85.2773 60.8626 84.157 61.9847 82.7776 61.9847C79.1405 61.9847 14.0754 61.9847 11.2223 61.9847C9.84301 61.9847 8.72272 60.8626 8.72272 59.4851V11.4001C8.72272 10.5576 9.14866 9.77436 9.8632 9.30785C10.5038 8.8876 10.6835 8.02655 10.2631 7.38415C9.84282 6.74359 8.98361 6.56386 8.34121 6.98428C6.84143 7.96559 5.94531 9.6172 5.94531 11.4003V59.4853C5.94531 62.3941 8.31165 64.7623 11.2222 64.7623C13.7042 64.7623 79.4559 64.7623 82.7775 64.7623C85.6882 64.7623 88.0545 62.3941 88.0545 59.4853V11.4001C88.0547 8.49122 85.6883 6.12305 82.7776 6.12305Z" fill="#E6E6E6"/>
<path d="M72.0793 51.4734C71.8848 50.731 71.1257 50.2885 70.3832 50.4828C69.6426 50.6772 69.1983 51.4363 69.3946 52.1788C69.7021 53.3813 68.8093 54.6711 67.4542 54.6711H26.5456C25.0213 54.6711 24.0407 53.0191 24.8164 51.6734L45.2687 16.2475C46.0418 14.9144 47.9578 14.9137 48.7311 16.2475L66.8672 47.6593C67.2506 48.3241 68.0986 48.5499 68.7632 48.1665C69.428 47.7832 69.6557 46.9352 69.2723 46.2706L51.1362 14.8588C50.2715 13.3627 48.7254 12.4702 46.9998 12.4702C45.2742 12.4702 43.7282 13.3627 42.8635 14.8588L22.4093 50.2865C20.5719 53.4761 22.8839 57.4483 26.5456 57.4483C30.9921 57.4483 63.2086 57.4483 67.454 57.4483C70.5951 57.4483 72.8711 54.4572 72.0793 51.4734Z" fill="#E6E6E6"/>
<path d="M47.1593 20.856H46.8407C44.6448 20.856 42.8599 22.6427 42.8599 24.8368V37.7367C42.8599 39.9308 44.6448 41.7175 46.8407 41.7175H47.1593C49.3552 41.7175 51.1401 39.9308 51.1401 37.7367V24.8368C51.1401 22.6429 49.3552 20.856 47.1593 20.856ZM48.3629 37.7367C48.3629 38.3995 47.8241 38.9401 47.1594 38.9401H46.8409C46.1761 38.9401 45.6375 38.3995 45.6375 37.7367V24.8368C45.6375 24.1741 46.1763 23.6334 46.8409 23.6334H47.1594C47.8242 23.6334 48.3629 24.1741 48.3629 24.8368V37.7367Z" fill="#E6E6E6"/>
<path d="M46.9999 42.9453C44.3134 42.9453 42.1284 45.1321 42.1284 47.8168C42.1284 50.5033 44.3132 52.6901 46.9999 52.6901C49.6866 52.6901 51.8714 50.5033 51.8714 47.8168C51.8714 45.1319 49.6864 42.9453 46.9999 42.9453ZM46.9999 49.9127C45.8445 49.9127 44.9058 48.9721 44.9058 47.8168C44.9058 46.6633 45.8445 45.7227 46.9999 45.7227C48.1552 45.7227 49.094 46.6633 49.094 47.8168C49.094 48.9721 48.1552 49.9127 46.9999 49.9127Z" fill="#E6E6E6"/>
</g>
<defs>
<clipPath id="clip0">
<rect width="94" height="94" fill="white"/>
</clipPath>
</defs>
</svg>
