<svg width="40" height="40" viewBox="0 0 40 40" fill="none" xmlns="http://www.w3.org/2000/svg">
<g clip-path="url(#clip0)">
<path d="M26.25 35.3121C25.8187 35.3121 25.4688 35.6621 25.4688 36.0934C25.4688 36.5246 25.8187 36.8746 26.25 36.8746C26.6812 36.8746 27.0312 36.5246 27.0312 36.0934C27.0312 35.6621 26.6812 35.3121 26.25 35.3121Z" fill="#878787"/>
<path d="M23.125 35.3121H13.75C13.3185 35.3121 12.9688 35.662 12.9688 36.0934C12.9688 36.5248 13.3185 36.8746 13.75 36.8746H23.125C23.5565 36.8746 23.9062 36.5248 23.9062 36.0934C23.9062 35.662 23.5565 35.3121 23.125 35.3121Z" fill="#878787"/>
<path d="M26.25 14.0621H13.75C13.3185 14.0621 12.9688 14.412 12.9688 14.8434C12.9688 15.2748 13.3185 15.6246 13.75 15.6246H26.25C26.6815 15.6246 27.0312 15.2748 27.0312 14.8434C27.0312 14.412 26.6815 14.0621 26.25 14.0621Z" fill="#878787"/>
<path d="M26.25 9.37463H13.75C13.3185 9.37463 12.9688 9.72448 12.9688 10.1559C12.9688 10.5873 13.3185 10.9371 13.75 10.9371H26.25C26.6815 10.9371 27.0312 10.5873 27.0312 10.1559C27.0312 9.72448 26.6815 9.37463 26.25 9.37463Z" fill="#878787"/>
<path d="M20 18.7496H13.75C13.3185 18.7496 12.9688 19.0995 12.9688 19.5309C12.9688 19.9623 13.3185 20.3121 13.75 20.3121H20C20.4315 20.3121 20.7812 19.9623 20.7812 19.5309C20.7812 19.0995 20.4315 18.7496 20 18.7496Z" fill="#878787"/>
<path d="M40 15.619C39.9982 15.3885 39.8902 15.1614 39.7038 15.0133C39.7009 15.0111 39.6984 15.0084 39.6955 15.0061L31.7188 8.86332V5.46887C31.7188 5.03746 31.369 4.68762 30.9375 4.68762H26.5862L21.4941 0.530899C20.6284 -0.175977 19.3717 -0.175977 18.506 0.53082L13.4138 4.68762H9.0625C8.63102 4.68762 8.28125 5.03746 8.28125 5.46887V8.86332L0.304531 15.0061C0.301641 15.0084 0.299141 15.0111 0.29625 15.0133C0.107578 15.1631 0.00179688 15.3913 0 15.619C0 15.62 0.00015625 15.6208 0.00015625 15.6218C0.00015625 15.6229 0 15.624 0 15.6252V37.6565C0 38.9497 1.05094 40.0002 2.34375 40.0002H37.6562C38.9546 40.0002 40 38.9442 40 37.6565V15.6252C40 15.624 39.9998 15.6229 39.9998 15.6218C39.9998 15.6208 40 15.62 40 15.619ZM31.7188 10.8355L37.9512 15.635L31.7188 20.5916V10.8355ZM19.4941 1.74121C19.7873 1.50184 20.2127 1.50191 20.5059 1.74129L24.1153 4.68762H15.8847L19.4941 1.74121ZM9.84375 6.25012C10.5084 6.25012 29.2548 6.25012 30.1562 6.25012V21.8342L20.5137 29.5028C20.511 29.5048 20.5084 29.5069 20.5059 29.509C20.2127 29.7484 19.7873 29.7484 19.4941 29.509C19.4915 29.5069 19.4889 29.5048 19.4862 29.5028L9.84375 21.8342V6.25012ZM8.28125 10.8355V20.5916L2.04883 15.635L8.28125 10.8355ZM1.5625 37.4845V17.2447L13.0044 26.3442L1.5625 37.4845ZM2.82336 38.4376L14.2372 27.3247L18.5102 30.7229C18.9423 31.0739 19.4712 31.2495 19.9999 31.2495C20.5287 31.2495 21.0576 31.0739 21.4896 30.7229L25.7627 27.3247L37.1765 38.4376H2.82336ZM38.4375 37.4845L26.9956 26.3442L38.4375 17.2447V37.4845Z" fill="#878787"/>
</g>
<defs>
<clipPath id="clip0">
<rect width="40" height="40" fill="white"/>
</clipPath>
</defs>
</svg>
