<svg width="44" height="46" viewBox="0 0 44 46" fill="none" xmlns="http://www.w3.org/2000/svg">
<path d="M42.2812 24.053V17.0703C42.2812 15.5841 41.1247 14.375 39.7031 14.375H38.8438V9.88281C38.8438 8.39662 37.6872 7.1875 36.2656 7.1875H31.4531V0.898438C31.4531 0.40232 31.0683 0 30.5938 0H9.96875C9.49412 0 9.10938 0.40232 9.10938 0.898438V7.1875H4.29688C1.92758 7.1875 0 9.20269 0 11.6797V17.8796C0 17.8802 0 17.8806 0 17.8812V40.5202C0 40.5208 0 40.5212 0 40.5218V41.5078C0 43.9848 1.92758 46 4.29688 46H39.7031C41.1247 46 42.2812 44.7909 42.2812 43.3047V36.322C43.2815 35.9512 44 34.9525 44 33.7812V26.5938C44 25.4225 43.2815 24.4238 42.2812 24.053ZM31.4531 8.98438H36.2656C36.7395 8.98438 37.125 9.38741 37.125 9.88281V14.375H31.4531V8.98438ZM21.1406 1.79688H29.7344V14.375H28.0156V11.6797C28.0156 11.1836 27.6308 10.7812 27.1562 10.7812C26.6817 10.7812 26.2969 11.1836 26.2969 11.6797V14.375H21.1406V1.79688ZM15.9844 1.79688H19.4219V14.375H15.9844V1.79688ZM10.8281 1.79688H14.2656V14.375H10.8281V1.79688ZM4.29688 8.98438H9.10938V14.375H4.44211C3.23959 14.375 2.17602 13.6368 1.85548 12.5794C1.76473 12.2806 1.71875 11.978 1.71875 11.6797C1.71875 10.1935 2.8753 8.98438 4.29688 8.98438ZM40.5625 43.3047C40.5625 43.8001 40.177 44.2031 39.7031 44.2031H4.29688C3.01477 44.2031 1.94872 43.2195 1.75166 41.9364C2.60752 42.2452 3.51785 42.4062 4.44211 42.4062H8.76562C9.24026 42.4062 9.625 42.0039 9.625 41.5078C9.625 41.0117 9.24026 40.6094 8.76562 40.6094H4.44211C3.48975 40.6094 2.55802 40.3952 1.71875 39.9879V19.2838C2.58414 19.6004 3.50608 19.7656 4.44211 19.7656H8.76562C9.24026 19.7656 9.625 19.3633 9.625 18.8672C9.625 18.3711 9.24026 17.9688 8.76562 17.9688H4.44211C3.48975 17.9688 2.55802 17.7546 1.71875 17.3473V15.2557C2.47878 15.8328 3.43243 16.1719 4.44211 16.1719H9.96875H30.5938H37.9844H39.7031C40.177 16.1719 40.5625 16.5749 40.5625 17.0703V23.8984H34.5469C32.9406 23.8984 31.4299 24.5524 30.2926 25.7404C29.1568 26.9289 28.5312 28.5082 28.5312 30.1875C28.5312 33.6553 31.2299 36.4766 34.5469 36.4766H40.5625V43.3047ZM42.2812 33.7812C42.2812 34.2766 41.8957 34.6797 41.4219 34.6797H34.5469C32.1776 34.6797 30.25 32.6645 30.25 30.1875C30.25 28.9879 30.697 27.8596 31.508 27.0111C32.3202 26.1626 33.3994 25.6953 34.5469 25.6953H41.4219C41.8957 25.6953 42.2812 26.0984 42.2812 26.5938V33.7812Z" fill="#878787"/>
</svg>
