<svg width="158" height="59" viewBox="0 0 158 59" fill="none" xmlns="http://www.w3.org/2000/svg">
<path d="M104.796 13.1257V40.0578C104.796 40.4845 104.476 40.8045 104.049 40.8045H98.5558C98.1292 40.8045 97.8092 40.4845 97.8092 40.0578V13.1257C97.8092 12.699 98.1292 12.379 98.5558 12.379H104.049C104.476 12.4324 104.796 12.7523 104.796 13.1257ZM147.674 12.4324H141.541C141.221 12.4324 140.954 12.6457 140.847 12.9657L135.994 28.9117L130.661 12.9657C130.554 12.6457 130.288 12.4857 129.968 12.4857H125.648C125.328 12.4857 125.061 12.699 124.955 12.9657L119.622 28.9117L114.768 12.9657C114.662 12.6457 114.395 12.4324 114.075 12.4324H107.942C107.729 12.4324 107.462 12.539 107.355 12.7523C107.195 12.9657 107.195 13.179 107.249 13.3923L116.315 40.3778C116.422 40.6978 116.688 40.8578 117.008 40.8578H121.915C122.235 40.8578 122.501 40.6445 122.608 40.3778L127.888 24.6452L133.168 40.3778C133.274 40.6978 133.541 40.8578 133.861 40.8578H138.767C139.087 40.8578 139.354 40.6445 139.461 40.3778L148.527 13.3923C148.58 13.179 148.58 12.9123 148.42 12.7523C148.154 12.539 147.94 12.4324 147.674 12.4324ZM156.953 12.4324H151.46C151.034 12.4324 150.714 12.7523 150.714 13.179V40.1112C150.714 40.5378 151.034 40.8578 151.46 40.8578H156.953C157.38 40.8578 157.7 40.5378 157.7 40.1112V13.179C157.7 12.7523 157.327 12.4324 156.953 12.4324ZM94.6627 39.8979C94.9827 40.2712 94.716 40.8045 94.236 40.8045H87.5163C87.2496 40.8045 86.983 40.6978 86.823 40.4845L85.703 39.0979C83.3565 40.5912 80.5833 41.4978 77.6501 41.4978C69.4371 41.4978 62.7707 34.8314 62.7707 26.6184C62.7707 18.4054 69.4371 11.739 77.6501 11.739C85.863 11.739 92.5294 18.4054 92.5294 26.6184C92.5294 29.5516 91.6761 32.3248 90.1829 34.6714L94.6627 39.8979ZM81.2766 33.9248L78.3433 30.3516C78.0234 29.9783 78.29 29.3916 78.77 29.3916H84.9564C85.2764 28.5383 85.4364 27.5784 85.4364 26.6184C85.4364 22.1919 82.1299 18.3521 77.5967 18.3521C73.0636 18.3521 69.757 22.1919 69.757 26.6184C69.757 31.0449 73.0636 34.8314 77.5967 34.8314C78.93 34.8847 80.1566 34.5114 81.2766 33.9248ZM45.7581 39.7912C45.9181 40.9111 45.5447 41.3911 45.2247 41.3911C44.8514 41.3911 44.3715 40.9111 43.7848 40.0578C43.1982 39.1512 42.9848 38.1379 43.3048 37.658C43.4648 37.338 43.8915 37.178 44.3714 37.338C45.2781 37.6579 45.6514 39.0979 45.7581 39.7912ZM40.4783 42.1911C41.5982 43.1511 41.9716 44.3243 41.3849 45.1243C41.0649 45.5509 40.5316 45.8176 39.8383 45.8176C39.1983 45.8176 38.5584 45.6043 38.0784 45.1776C37.0651 44.271 36.7451 42.7777 37.4384 41.9778C37.7051 41.6578 38.1317 41.4978 38.665 41.4978C39.2517 41.4978 39.8916 41.7644 40.4783 42.1911ZM38.5584 51.524C43.4648 51.524 48.7979 53.2306 54.7177 58.4571C55.3043 58.9904 56.1043 58.3504 55.571 57.6571C49.7579 50.3507 44.4248 48.9641 39.0917 47.7909C32.532 46.3509 29.1721 42.6711 26.8255 38.6179C26.3455 37.818 26.1322 37.9779 26.1322 38.9912C26.0789 40.2712 26.1856 41.9244 26.4522 43.5777C26.1856 43.5777 25.9189 43.5777 25.6523 43.5777C16.3193 43.5777 8.69296 36.0047 8.69296 26.6184C8.69296 17.2855 16.266 9.65913 25.6523 9.65913C35.0385 9.65913 42.6115 17.2322 42.6115 26.6184C42.6115 27.2584 42.5582 27.9517 42.5049 28.5917C41.2782 28.3783 38.825 28.325 37.1184 28.485C36.4785 28.5383 36.5851 28.8583 37.0651 28.9117C42.6649 29.9249 46.5047 33.3915 47.4113 39.6845C47.4113 39.8445 47.6246 39.8979 47.678 39.7379C49.9712 35.898 51.3045 31.4182 51.3045 26.5651C51.3045 12.4324 39.8383 0.912842 25.6523 0.912842C11.4662 0.912842 0 12.379 0 26.5651C0 40.6978 11.4662 52.2173 25.6523 52.2173C29.3854 52.2707 33.1186 51.524 38.5584 51.524Z" fill="#FF8C00"/>
</svg>
