<svg width="113" height="34" viewBox="0 0 113 34" fill="none" xmlns="http://www.w3.org/2000/svg">
<path d="M50.0601 1.58423V32.3548C50.0601 32.8423 49.6794 33.2079 49.1718 33.2079H42.6367C42.1291 33.2079 41.7484 32.8423 41.7484 32.3548V1.58423C41.7484 1.09677 42.1291 0.731182 42.6367 0.731182H49.1718C49.6794 0.731182 50.0601 1.09677 50.0601 1.58423ZM101.072 0.731182H93.7754C93.3947 0.731182 93.0775 0.974909 92.9506 1.3405L87.1769 19.5591L80.8321 1.3405C80.7052 0.974909 80.388 0.792114 80.0073 0.792114H74.8681C74.4874 0.792114 74.1701 1.03584 74.0432 1.3405L67.6985 19.5591L61.7979 1.3405C61.671 0.974909 61.3537 0.731182 60.973 0.731182H53.6766C53.4228 0.731182 53.1056 0.853046 52.9787 1.09677C52.7883 1.3405 52.7883 1.58423 52.8518 1.82796L63.6378 32.6595C63.7647 33.0251 64.082 33.2079 64.4627 33.2079H70.2998C70.6805 33.2079 70.9977 32.9642 71.1246 32.6595L77.406 14.6846L83.6872 32.6595C83.8141 33.0251 84.1314 33.2079 84.5121 33.2079H90.3492C90.7299 33.2079 91.0472 32.9642 91.1741 32.6595L101.96 1.82796C102.024 1.58423 102.024 1.27957 101.833 1.09677C101.643 0.853046 101.389 0.731182 101.072 0.731182ZM112.112 0.731182H105.577C105.069 0.731182 104.688 1.09677 104.688 1.58423V32.3548C104.688 32.8423 105.069 33.2079 105.577 33.2079H112.112C112.619 33.2079 113 32.8423 113 32.3548V1.58423C113 1.09677 112.556 0.731182 112.112 0.731182ZM38.0051 32.172C38.3857 32.5986 38.0685 33.2079 37.4975 33.2079H29.4396C29.1224 33.2079 28.8052 33.086 28.6148 32.8423L27.2824 31.2581C24.4907 32.9642 21.1915 34 17.7019 34C7.93094 34 0 26.3835 0 17C0 7.61649 7.93094 0 17.7019 0C27.4728 0 35.4037 7.61649 35.4037 17C35.4037 20.3513 34.3885 23.5197 32.612 26.2007L38.0051 32.172ZM22.0797 25.2867L18.5901 21.2043C18.2094 20.7778 18.5267 20.1075 19.0977 20.1075H26.4576C26.8383 19.1326 27.0286 18.0358 27.0286 16.9391C27.0286 11.8817 23.0949 7.49462 17.7019 7.49462C12.3088 7.49462 8.37507 11.8817 8.37507 16.9391C8.37507 21.9964 12.3088 26.3226 17.7019 26.3226C19.288 26.3835 20.7473 25.957 22.0797 25.2867Z" fill="#FF8C00"/>
</svg>
