<svg width="137" height="50" viewBox="0 0 137 50" fill="none" xmlns="http://www.w3.org/2000/svg">
<path d="M90.7447 10.5753V33.8965C90.7447 34.2659 90.4677 34.543 90.0982 34.543H85.3416C84.9722 34.543 84.6951 34.2659 84.6951 33.8965V10.5753C84.6951 10.2059 84.9722 9.92881 85.3416 9.92881H90.0982C90.4677 9.97499 90.7447 10.2521 90.7447 10.5753ZM127.874 9.975H122.563C122.286 9.975 122.055 10.1597 121.963 10.4368L117.76 24.2448L113.142 10.4368C113.05 10.1597 112.819 10.0212 112.542 10.0212H108.801C108.524 10.0212 108.293 10.2059 108.201 10.4368L103.583 24.2448L99.3805 10.4368C99.2881 10.1597 99.0572 9.975 98.7802 9.975H93.4694C93.2847 9.975 93.0538 10.0674 92.9614 10.2521C92.8229 10.4368 92.8229 10.6215 92.869 10.8062L100.72 34.1736C100.812 34.4507 101.043 34.5892 101.32 34.5892H105.569C105.846 34.5892 106.077 34.4045 106.169 34.1736L110.741 20.5503L115.313 34.1736C115.405 34.4507 115.636 34.5892 115.913 34.5892H120.162C120.439 34.5892 120.67 34.4045 120.762 34.1736L128.613 10.8062C128.659 10.6215 128.659 10.3906 128.52 10.2521C128.29 10.0674 128.105 9.975 127.874 9.975ZM135.909 9.975H131.153C130.783 9.975 130.506 10.2521 130.506 10.6215V33.9427C130.506 34.3121 130.783 34.5892 131.153 34.5892H135.909C136.279 34.5892 136.556 34.3121 136.556 33.9427V10.6215C136.556 10.2521 136.233 9.975 135.909 9.975ZM81.9704 33.758C82.2475 34.0812 82.0166 34.543 81.601 34.543H75.7823C75.5514 34.543 75.3204 34.4507 75.1819 34.266L74.2121 33.0653C72.1802 34.3583 69.7788 35.1434 67.2389 35.1434C60.1271 35.1434 54.3545 29.3708 54.3545 22.259C54.3545 15.1472 60.1271 9.37464 67.2389 9.37464C74.3507 9.37464 80.1232 15.1472 80.1232 22.259C80.1232 24.7989 79.3843 27.2003 78.0913 29.2323L81.9704 33.758ZM70.3791 28.5857L67.8392 25.4917C67.5621 25.1684 67.793 24.6604 68.2086 24.6604H73.5656C73.8427 23.9215 73.9812 23.0903 73.9812 22.259C73.9812 18.426 71.118 15.101 67.1927 15.101C63.2673 15.101 60.4041 18.426 60.4041 22.259C60.4041 26.092 63.2673 29.3708 67.1927 29.3708C68.3472 29.417 69.4093 29.0937 70.3791 28.5857ZM39.6229 33.6656C39.7614 34.6354 39.4382 35.051 39.1611 35.051C38.8378 35.051 38.4222 34.6354 37.9142 33.8965C37.4062 33.1114 37.2215 32.234 37.4986 31.8184C37.6371 31.5413 38.0066 31.4028 38.4222 31.5413C39.2073 31.8184 39.5305 33.0653 39.6229 33.6656ZM35.051 35.7437C36.0208 36.575 36.3441 37.5909 35.8361 38.2837C35.559 38.6531 35.0972 38.884 34.4968 38.884C33.9427 38.884 33.3885 38.6993 32.9729 38.3298C32.0955 37.5448 31.8184 36.2517 32.4187 35.559C32.6496 35.2819 33.0191 35.1434 33.4809 35.1434C33.9889 35.1434 34.543 35.3743 35.051 35.7437ZM33.3885 43.8253C37.6371 43.8253 42.2552 45.3031 47.3812 49.8288C47.8892 50.2906 48.5819 49.7364 48.1201 49.1361C43.0864 42.8093 38.4684 41.6087 33.8503 40.5927C28.1701 39.3458 25.2607 36.1594 23.2288 32.6496C22.8132 31.9569 22.6285 32.0955 22.6285 32.9729C22.5823 34.0812 22.6746 35.5128 22.9055 36.9444C22.6746 36.9444 22.4437 36.9444 22.2128 36.9444C14.1312 36.9444 7.52742 30.3868 7.52742 22.259C7.52742 14.1774 14.0851 7.5736 22.2128 7.5736C30.3406 7.5736 36.8982 14.1312 36.8982 22.259C36.8982 22.8132 36.8521 23.4135 36.8059 23.9677C35.7437 23.783 33.6194 23.7368 32.1417 23.8753C31.5875 23.9215 31.6798 24.1986 32.0955 24.2448C36.9444 25.1222 40.2694 28.1239 41.0545 33.5732C41.0545 33.7118 41.2392 33.758 41.2854 33.6194C43.2712 30.2944 44.4257 26.4153 44.4257 22.2128C44.4257 9.975 34.4969 0 22.2128 0C9.92882 0 0 9.92882 0 22.2128C0 34.4507 9.92882 44.4257 22.2128 44.4257C25.4455 44.4719 28.6781 43.8253 33.3885 43.8253Z" fill="#FF8C00"/>
</svg>
