<svg width="41" height="48" viewBox="0 0 41 48" fill="none" xmlns="http://www.w3.org/2000/svg">
<path d="M20.5001 14.8273C19.9929 14.8273 19.5813 15.2276 19.5813 15.721C19.5813 15.7361 19.5813 15.7504 19.5822 15.7647L19.5234 15.7701L19.5464 15.7692L19.5822 15.7674C19.608 16.2393 20.0095 16.6146 20.5001 16.6146C20.9917 16.6146 21.3932 16.2384 21.418 15.7656C21.4189 15.7513 21.4189 15.7361 21.4189 15.721C21.4189 15.2276 21.0073 14.8273 20.5001 14.8273Z" fill="#878787"/>
<path fill-rule="evenodd" clip-rule="evenodd" d="M19.5209 15.7687L19.4826 15.7712C19.4814 15.7537 19.4814 15.7366 19.4814 15.7223L19.4814 15.721C19.4814 15.1698 19.9405 14.7273 20.5003 14.7273C21.06 14.7273 21.5191 15.1698 21.5191 15.721V15.7223M19.5209 15.7687L19.521 15.7708L19.4825 15.7729C19.5112 16.2998 19.9585 16.7147 20.5003 16.7147C21.0428 16.7147 21.49 16.299 21.518 15.7715M19.5931 15.8642C19.6643 16.2896 20.0437 16.6147 20.5003 16.6147C20.9918 16.6147 21.3933 16.2384 21.4181 15.7657C21.4191 15.7514 21.4191 15.7362 21.4191 15.721C21.4191 15.2277 21.0074 14.8273 20.5003 14.8273C20.0116 14.8273 19.6117 15.1989 19.5831 15.6673C19.582 15.6851 19.5814 15.703 19.5814 15.721C19.5814 15.7362 19.5814 15.7505 19.5824 15.7648L19.5236 15.7701L19.5465 15.7692L19.5824 15.7675C19.5832 15.7833 19.5845 15.799 19.5862 15.8146C19.587 15.8222 19.588 15.8297 19.589 15.8372C19.5902 15.8462 19.5916 15.8553 19.5931 15.8642Z" fill="#878787"/>
<path d="M39.6909 6.4715C39.4942 6.30107 39.2314 6.21985 38.9693 6.24779C38.0844 6.34267 37.1815 6.39065 36.2857 6.39065C30.4478 6.39065 24.5879 3.6965 21.0508 1.17513C20.7233 0.941624 20.2768 0.941624 19.9493 1.17513C16.4121 3.6965 10.5522 6.39065 4.71429 6.39065C3.81859 6.39065 2.91564 6.34258 2.03071 6.24788C1.76876 6.21976 1.50598 6.30107 1.30912 6.47159C1.11245 6.64203 1 6.88541 1 7.14084V22.8096C1 34.0027 9.4864 43.6782 20.2203 46.9583C20.3113 46.9862 20.4057 47 20.5 47C20.5943 47 20.6886 46.9861 20.7797 46.9583C31.5041 43.6812 40 34.0122 40 22.8096V7.14084C40 6.88532 39.8876 6.64194 39.6909 6.4715ZM38.1429 22.8096C38.1429 32.7061 30.903 41.8567 20.5 45.1578C10.097 41.8568 2.85714 32.7061 2.85714 22.8096V8.12409C3.47474 8.16623 4.09614 8.18752 4.71429 8.18752C10.7055 8.18752 16.6839 5.57738 20.5 3.00354C24.3161 5.57738 30.2945 8.18752 36.2857 8.18752C36.9039 8.18752 37.5254 8.16623 38.1429 8.12409V22.8096Z" fill="#878787"/>
<path fill-rule="evenodd" clip-rule="evenodd" d="M39.7563 6.39596C39.5383 6.20703 39.2478 6.11756 38.9586 6.14838C38.0772 6.24287 37.1779 6.29067 36.2856 6.29067C30.4748 6.29067 24.635 3.60732 21.1088 1.09373C20.7465 0.835459 20.2534 0.835456 19.8911 1.09372C16.3648 3.60731 10.525 6.29067 4.71419 6.29067C3.82202 6.29067 2.92263 6.24279 2.04126 6.14848C1.75216 6.11745 1.46168 6.20708 1.24353 6.39605C1.02543 6.58505 0.899902 6.8558 0.899902 7.14086V22.8096C0.899902 34.0545 9.42306 43.7635 20.191 47.054C20.2916 47.0848 20.3958 47.1 20.4999 47.1C20.6041 47.1 20.7082 47.0846 20.8088 47.054C31.5672 43.7665 40.0999 34.0641 40.0999 22.8096V7.14086C40.0999 6.85572 39.9744 6.58497 39.7563 6.39596ZM2.85705 22.8096C2.85705 32.7062 10.0969 41.8568 20.4999 45.1578C30.9029 41.8567 38.1428 32.7062 38.1428 22.8096V8.12411L38.0428 8.13075C37.4582 8.16849 36.8704 8.18754 36.2856 8.18754C30.2944 8.18754 24.316 5.5774 20.4999 3.00356C16.6838 5.5774 10.7054 8.18754 4.71419 8.18754C4.12939 8.18754 3.54168 8.16849 2.95705 8.13075L2.85705 8.12411V22.8096Z" fill="#878787"/>
<path d="M24.4633 15.6127C23.9968 15.4182 23.4567 15.6284 23.2568 16.082C23.0569 16.5357 23.273 17.0611 23.7393 17.2555C26.7946 18.5291 28.7688 21.4347 28.7688 24.6578C28.7688 29.2281 24.9047 33.2372 20.4996 33.2372C16.1756 33.2372 12.1626 29.3031 12.232 24.4897C12.333 21.2299 14.2121 18.526 17.2599 17.2554C17.7262 17.061 17.9423 16.5357 17.7424 16.0819C17.5425 15.6283 17.0023 15.418 16.5359 15.6126C12.8665 17.1422 10.5134 20.5262 10.3949 24.4437C10.3948 24.4483 10.3947 24.453 10.3946 24.4577C10.3131 29.9673 14.8154 35.0245 20.4996 35.0245C26.1577 35.0245 30.6064 30.0103 30.6064 24.6578C30.6064 20.7188 28.1951 17.1683 24.4633 15.6127Z" fill="#878787"/>
<path fill-rule="evenodd" clip-rule="evenodd" d="M23.7008 17.3478C23.1844 17.1325 22.9419 16.5483 23.1652 16.0417C23.3878 15.5367 23.9865 15.3056 24.5017 15.5204C28.2694 17.091 30.7063 20.677 30.7063 24.6578C30.7063 30.0603 26.218 35.1245 20.4995 35.1245C14.7546 35.1245 10.2123 30.0166 10.2946 24.4562L10.2949 24.4407C10.4146 20.4832 12.7923 17.0647 16.4973 15.5203C17.0124 15.3054 17.6112 15.5366 17.8338 16.0416C18.0571 16.5483 17.8146 17.1324 17.2982 17.3477C14.2864 18.6033 12.4319 21.2724 12.3319 24.4919C12.2637 29.2509 16.2332 33.1371 20.4995 33.1371C24.8459 33.1371 28.6687 29.1763 28.6687 24.6578C28.6687 21.4764 26.7201 18.6064 23.7008 17.3478ZM12.2319 24.4897C12.3329 21.2299 14.212 18.526 17.2598 17.2554C17.7261 17.061 17.9422 16.5357 17.7423 16.0819C17.5424 15.6283 17.0022 15.418 16.5358 15.6126C12.8664 17.1422 10.5133 20.5262 10.3948 24.4437L10.3945 24.4577C10.313 29.9673 14.8153 35.0245 20.4995 35.0245C26.1576 35.0245 30.6063 30.0103 30.6063 24.6578C30.6063 20.7187 28.195 17.1683 24.4632 15.6127C23.9967 15.4182 23.4566 15.6284 23.2567 16.082C23.0568 16.5357 23.2729 17.0611 23.7392 17.2555C26.7945 18.5291 28.7687 21.4347 28.7687 24.6578C28.7687 29.2281 24.9046 33.2371 20.4995 33.2371C16.1755 33.2371 12.1625 29.3031 12.2319 24.4897Z" fill="#878787"/>
<path d="M25.7437 21.3447C25.3848 20.9958 24.8032 20.9958 24.4442 21.3447L18.6624 26.9686L15.6368 24.0258C15.2779 23.6768 14.6963 23.6768 14.3375 24.0258C13.9787 24.3748 13.9787 24.9407 14.3375 25.2897L18.0127 28.8645C18.1921 29.039 18.4272 29.1263 18.6624 29.1263C18.8975 29.1263 19.1326 29.039 19.312 28.8645L25.7437 22.6087C26.1025 22.2597 26.1025 21.6938 25.7437 21.3447Z" fill="#878787"/>
<path fill-rule="evenodd" clip-rule="evenodd" d="M25.8133 21.2731L25.8133 21.2731C26.2124 21.6614 26.2125 22.2921 25.8133 22.6804L19.3817 28.9362C19.1825 29.1299 18.9219 29.2263 18.6623 29.2263C18.4026 29.2263 18.142 29.1299 17.9428 28.9362L14.2676 25.3615L14.2676 25.3614C13.8685 24.9731 13.8685 24.3424 14.2676 23.9541L14.2676 23.9541C14.6653 23.5674 15.3087 23.5674 15.7064 23.9541L15.7065 23.9541L18.6623 26.8291L24.3744 21.2731L24.3744 21.2731C24.7722 20.8864 25.4156 20.8863 25.8133 21.2731ZM18.6623 26.9686L15.6367 24.0258C15.2778 23.6768 14.6962 23.6768 14.3374 24.0258C13.9786 24.3748 13.9786 24.9407 14.3374 25.2898L18.0126 28.8645C18.192 29.0391 18.4271 29.1263 18.6623 29.1263C18.8974 29.1263 19.1325 29.0391 19.3119 28.8645L25.7436 22.6087C26.1024 22.2597 26.1024 21.6938 25.7436 21.3448C25.3847 20.9958 24.8031 20.9958 24.4441 21.3448L18.6623 26.9686Z" fill="#878787"/>
</svg>
