<svg width="50" height="50" viewBox="0 0 50 50" fill="none" xmlns="http://www.w3.org/2000/svg">
<path d="M32.4462 3.33795H17.5547V27.8464H32.4462V3.33795Z" fill="#FF5F00"/>
<path d="M19.1007 15.592C19.1007 10.8289 21.2894 6.28228 25.023 3.3378C18.2853 -1.98825 8.58655 -0.819118 3.30802 5.97917C-1.97051 12.7775 -0.811811 22.5202 5.92583 27.8463C11.5477 32.3063 19.4011 32.3063 25.023 27.8463C21.2894 24.9018 19.1007 20.3985 19.1007 15.592Z" fill="#EB001B"/>
<path d="M48.5397 25.2484V24.7288H48.7542V24.6422H48.2393V24.7288H48.4538V25.2484H48.5397ZM49.5267 25.2484V24.6422H49.355L49.1834 25.0752L49.0117 24.6422H48.8401V25.2484H48.9688V24.7721L49.1405 25.1618H49.2692L49.4409 24.7721V25.2484H49.5267Z" fill="#F79E1B"/>
<path d="M49.9989 15.592C49.9989 24.209 43.0896 31.1805 34.5495 31.1805C31.0734 31.1805 27.726 30.0113 25.0224 27.8463C31.7171 22.5202 32.8758 12.7342 27.5973 5.97917C26.8248 4.98324 25.9665 4.11722 24.9795 3.33779C31.6742 -1.98825 41.4159 -0.819118 46.6944 5.97917C48.8402 8.70714 49.9989 12.0846 49.9989 15.592Z" fill="#F79E1B"/>
<path d="M21.6776 49.7272H17.598L20.1477 33.9167H24.2277L21.6776 49.7272ZM14.1661 33.9167L10.2768 44.7913L9.81656 42.4496L9.81698 42.4504L8.44427 35.3403C8.44427 35.3403 8.27829 33.9167 6.50907 33.9167H0.0793529L0.00390625 34.1844C0.00390625 34.1844 1.97013 34.5972 4.27124 35.9916L7.81555 49.7276H12.0661L18.5566 33.9167H14.1661ZM46.2539 49.7272H49.9998L46.7338 33.9163H43.4544C41.94 33.9163 41.5712 35.0946 41.5712 35.0946L35.4868 49.7272H39.7395L40.5899 47.3787H45.776L46.2539 49.7272ZM41.7648 44.1345L43.9083 38.2178L45.1142 44.1345H41.7648ZM35.8058 37.7188L36.388 34.3236C36.388 34.3236 34.5915 33.6342 32.7188 33.6342C30.6943 33.6342 25.8867 34.527 25.8867 38.8683C25.8867 42.9528 31.5292 43.0036 31.5292 45.1491C31.5292 47.2945 26.468 46.9101 24.7977 45.5572L24.1912 49.1072C24.1912 49.1072 26.0128 50 28.796 50C31.5799 50 35.7798 48.5455 35.7798 44.587C35.7798 40.4762 30.0865 40.0935 30.0865 38.3062C30.0869 36.5185 34.06 36.7482 35.8058 37.7188Z" fill="#2566AF"/>
<path d="M9.817 42.4502L8.44429 35.34C8.44429 35.34 8.27831 33.9165 6.50908 33.9165H0.079353L0.00390625 34.1842C0.00390625 34.1842 3.09428 34.8304 6.0585 37.2516C8.89278 39.5659 9.817 42.4502 9.817 42.4502Z" fill="#E6A540"/>
</svg>
